<?xml version="1.0" encoding="utf-8"?>
<svg xmlns="http://www.w3.org/2000/svg" viewBox="119.926 98.936 260.371 304.874" xmlns:bx="https://boxy-svg.com" width="260.371px" height="304.874px"><defs><bx:export><bx:file format="svg"/></bx:export></defs><g transform="matrix(0.1, 0, 0, -0.1, 47.1821, 535.994)" fill="#000000" stroke="none"><path d="M1440 4351 c-48 -18 -150 -109 -150 -134 0 -8 -7 -20 -15 -27 -8 -7 -15 -29 -15 -50 0 -24 -7 -43 -19 -54 -19 -18 -19 -18 1 -57 11 -22 22 -59 23 -82 4 -56 23 -105 69 -171 l38 -55 -41 -49 c-23 -26 -41 -55 -41 -64 0 -9 -7 -21 -16 -29 -8 -7 -13 -21 -10 -32 5 -21 -14 -57 -51 -94 -13 -12 -23 -33 -23 -45 0 -13 -7 -34 -16 -46 -10 -14 -14 -33 -10 -47 3 -13 1 -27 -4 -30 -6 -4 -22 -32 -36 -62 -18 -41 -21 -59 -13 -69 7 -9 6 -20 -4 -41 -8 -15 -19 -50 -26 -78 -7 -27 -21 -69 -33 -93 -11 -23 -22 -58 -23 -78 -5 -53 -42 -156 -75 -208 -17 -26 -41 -68 -54 -94 -13 -26 -33 -56 -45 -66 -13 -12 -19 -26 -15 -38 3 -10 -11 -55 -34 -106 -81 -177 -90 -215 -52 -227 12 -4 32 -24 45 -46 14 -21 43 -50 64 -64 22 -13 54 -37 73 -53 18 -16 58 -46 88 -66 118 -79 206 -152 233 -193 25 -37 80 -75 142 -97 28 -10 82 -34 122 -52 40 -19 79 -34 87 -34 8 0 52 -9 98 -21 46 -11 106 -25 133 -29 28 -5 75 -13 105 -19 30 -6 78 -16 105 -21 28 -6 122 -25 210 -44 207 -43 361 -61 510 -60 108 2 131 6 230 38 96 31 174 52 265 73 44 10 70 43 70 89 0 45 -27 115 -62 159 -15 19 -18 30 -10 33 20 6 14 29 -24 88 -36 57 -110 216 -143 309 -10 28 -30 73 -44 101 -45 90 -71 246 -47 284 6 10 3 24 -10 45 -15 24 -18 46 -16 101 1 38 5 74 8 79 3 6 9 44 13 85 9 100 20 122 108 211 82 84 93 107 156 323 25 83 33 136 38 225 l6 117 -32 37 c-23 26 -49 42 -89 54 -31 9 -58 18 -60 18 -1 1 11 28 28 61 25 49 30 71 30 129 0 94 -23 179 -66 242 -46 67 -78 82 -150 71 -71 -11 -137 -44 -200 -101 l-50 -45 -140 -2 c-76 -1 -157 -2 -179 -2 -22 0 -83 7 -135 17 -83 16 -107 17 -195 6 -197 -24 -210 -20 -285 75 -65 83 -145 125 -234 123 -34 -1 -81 -9 -106 -18z m205 -25 c32 -15 77 -52 126 -104 70 -74 79 -80 125 -86 27 -4 74 -2 104 4 109 22 173 23 260 4 47 -9 108 -17 135 -17 28 1 113 2 191 3 l141 1 34 35 c19 20 60 51 92 71 46 28 70 36 121 39 l64 4 44 -49 c51 -58 69 -108 76 -218 4 -83 -2 -106 -66 -224 -1 -4 21 -12 50 -19 54 -13 113 -38 106 -45 -2 -3 -25 2 -52 10 -57 17 -150 8 -191 -19 -27 -18 -55 -70 -55 -104 0 -30 -25 -56 -46 -48 -18 7 -18 8 3 19 17 10 20 16 11 31 -6 10 -8 36 -5 57 6 43 -1 48 -26 21 -38 -41 -39 -70 -7 -135 22 -46 30 -76 30 -117 0 -30 5 -62 10 -70 7 -11 10 5 10 53 0 37 4 67 8 67 5 0 21 -13 37 -30 41 -43 102 -83 114 -75 18 10 13 25 -8 25 -11 0 -31 10 -45 23 l-25 22 39 27 c22 15 40 23 40 18 0 -19 39 -10 45 10 8 26 13 25 57 -14 l37 -32 -19 -30 c-11 -16 -20 -37 -20 -48 0 -26 -40 -87 -52 -80 -5 4 -7 20 -4 36 3 16 2 27 -3 24 -15 -10 -18 -75 -4 -80 7 -3 13 -11 13 -18 0 -9 -18 -13 -62 -13 -59 -1 -258 -34 -340 -57 -30 -9 -46 -8 -80 6 -72 27 -96 22 -115 -21 -8 -21 -18 -56 -21 -78 -6 -50 -19 -75 -38 -75 -12 0 -12 4 2 32 14 27 15 39 4 84 -16 66 -8 110 30 160 28 37 40 72 21 60 -4 -3 -25 -30 -46 -60 -30 -45 -39 -68 -50 -140 -13 -88 -34 -136 -61 -136 -13 0 -12 4 4 28 20 27 42 94 42 122 -1 8 -7 1 -14 -15 -7 -17 -26 -39 -42 -50 -40 -25 -103 -94 -93 -101 5 -3 29 14 54 37 45 42 58 42 29 1 -22 -32 -9 -43 49 -42 179 2 394 -23 421 -50 5 -5 -7 -15 -30 -25 -118 -50 -139 -65 -167 -116 -30 -55 -50 -62 -22 -9 21 41 13 49 -13 13 -26 -36 -71 -173 -57 -173 2 0 13 17 24 38 27 53 103 120 220 196 96 62 125 96 81 96 -10 0 -29 4 -42 9 -13 5 -32 12 -42 16 -13 4 -16 9 -9 16 7 7 27 6 64 -5 65 -20 139 -20 183 -2 36 15 116 111 116 139 0 15 -15 17 -117 17 -65 0 -128 -3 -141 -6 -14 -4 -32 -25 -48 -56 -24 -47 -27 -49 -61 -46 -22 2 -38 -2 -40 -9 -3 -8 4 -13 16 -13 21 0 28 -14 13 -24 -21 -13 -52 7 -53 33 0 26 0 26 -11 4 -15 -31 -27 -29 -25 5 2 23 -2 27 -20 24 -13 -2 -23 2 -23 8 0 6 -5 8 -12 4 -27 -17 -60 -10 -69 15 -17 43 -5 52 42 29 50 -24 81 -20 189 24 68 28 90 31 235 39 88 5 163 5 168 0 16 -16 -38 -107 -105 -175 -38 -38 -73 -77 -79 -87 -29 -56 -58 -335 -39 -384 7 -17 13 -75 14 -130 1 -91 4 -106 34 -170 19 -38 45 -101 59 -140 14 -38 31 -79 38 -90 7 -11 16 -33 20 -50 8 -37 89 -188 110 -205 21 -18 19 -33 -5 -27 -27 7 -25 -3 11 -53 37 -51 75 -137 65 -148 -4 -3 -21 1 -38 11 -17 10 -33 16 -35 13 -8 -8 45 -56 62 -56 8 0 15 -5 15 -11 0 -7 -9 -9 -21 -6 -15 4 -19 2 -15 -9 3 -8 0 -14 -7 -14 -7 0 -20 20 -30 44 -10 24 -38 73 -62 110 -24 37 -47 77 -51 89 -3 12 -13 30 -21 39 -28 32 -9 41 25 13 20 -17 31 -34 28 -42 -8 -20 9 -48 62 -105 54 -57 72 -62 42 -10 -13 20 -34 57 -48 82 -13 25 -34 56 -46 68 -28 32 -96 66 -107 55 -10 -10 43 -114 99 -195 17 -25 39 -65 48 -89 9 -24 21 -48 26 -53 18 -21 6 -27 -33 -21 -29 5 -40 4 -35 -4 9 -14 -12 -14 -52 0 -36 13 -48 35 -24 48 15 9 12 15 -24 53 -23 24 -51 61 -62 84 -12 22 -36 52 -54 66 -53 40 -58 41 -58 19 0 -12 6 -21 14 -21 25 0 65 -41 86 -88 11 -25 35 -58 53 -73 26 -22 30 -30 20 -40 -18 -18 -16 -25 9 -48 l21 -20 -24 -9 c-165 -62 -279 -79 -419 -62 -52 7 -133 15 -180 19 -86 6 -117 17 -157 54 -13 11 -26 17 -30 14 -3 -4 2 -14 13 -22 16 -12 16 -14 3 -15 -9 0 -29 4 -45 9 -16 5 -74 17 -129 26 -55 9 -123 23 -152 31 -28 8 -64 14 -80 14 -15 0 -35 5 -43 10 -13 8 -13 13 -2 31 12 19 10 25 -25 61 -21 21 -48 41 -60 44 -38 10 -55 95 -38 192 5 27 4 42 -3 42 -5 0 -12 -17 -15 -37 -9 -62 -36 -177 -46 -194 -5 -8 -7 -27 -4 -40 8 -41 -18 -54 -59 -29 -18 11 -41 20 -51 20 -28 0 -129 38 -159 60 -15 11 -34 17 -42 14 -9 -4 -33 13 -64 47 -45 47 -48 55 -34 65 16 11 15 14 -4 36 -15 17 -21 37 -22 78 -1 67 -19 122 -32 100 -6 -8 -13 -36 -16 -62 l-7 -48 -23 23 c-15 14 -24 34 -24 54 0 17 -7 67 -15 110 -18 92 -20 221 -3 186 25 -52 66 -29 111 62 34 68 41 122 27 204 -9 54 -9 75 0 93 15 29 51 68 62 68 15 0 8 -44 -11 -80 -37 -67 -42 -81 -31 -98 8 -15 9 -15 10 3 0 11 8 31 17 44 9 14 22 41 29 60 l13 36 1 -36 c0 -20 -7 -56 -16 -80 -19 -56 -54 -227 -60 -299 -3 -30 -12 -80 -20 -111 -17 -69 -17 -79 -1 -79 6 0 12 10 13 23 1 12 8 47 17 77 14 49 17 52 23 30 12 -41 102 -216 118 -229 17 -14 52 -7 59 12 4 11 -50 268 -77 368 -6 20 -1 33 18 56 l26 31 55 -29 c54 -30 105 -80 105 -103 0 -17 88 -101 97 -93 4 4 -15 30 -42 57 -52 53 -48 65 10 28 34 -22 46 -41 51 -83 1 -11 3 -23 3 -26 1 -4 25 -38 55 -75 29 -38 62 -87 73 -109 26 -50 98 -132 108 -123 4 4 -8 25 -28 47 -20 22 -46 59 -58 83 -12 23 -45 72 -74 108 -29 36 -55 75 -59 88 -3 12 -9 32 -12 43 -6 21 -6 21 27 3 91 -49 140 -83 207 -142 40 -36 76 -62 79 -58 4 3 -30 41 -74 84 -64 62 -87 92 -116 154 -51 110 -94 170 -116 163 -14 -4 -20 1 -24 24 -4 16 -34 63 -68 103 -83 99 -106 119 -126 111 -13 -5 -12 1 7 27 22 31 25 32 34 15 32 -54 110 -165 116 -165 4 0 13 7 20 15 10 13 25 1 100 -78 81 -84 90 -91 105 -76 12 11 16 36 17 93 l1 77 31 -24 c20 -16 38 -44 50 -78 22 -61 24 -64 31 -57 3 3 1 18 -5 33 -6 15 -16 74 -22 131 -9 91 -8 107 6 129 18 28 6 35 -15 9 -9 -11 -13 -41 -11 -96 l2 -80 -26 21 c-30 24 -53 27 -55 9 -1 -7 -2 -17 -4 -23 -1 -5 -3 -41 -3 -78 l-2 -68 -72 80 c-40 45 -75 81 -80 81 -16 0 -36 58 -39 115 -4 56 -2 60 19 63 16 2 39 -13 82 -54 l60 -57 0 -59 c0 -37 4 -57 10 -53 6 3 10 32 10 64 l0 58 -64 61 c-45 43 -72 62 -90 62 -21 0 -26 5 -26 26 0 59 -36 82 -64 42 -15 -21 -16 -19 -16 44 0 56 -15 131 -23 117 -6 -10 10 -306 17 -321 5 -11 4 -18 -2 -18 -15 0 -64 119 -57 138 13 31 23 256 13 269 -7 9 -3 22 14 45 l23 33 6 -75 c5 -69 29 -140 47 -140 5 0 16 -16 25 -35 9 -19 35 -46 58 -61 l41 -26 60 27 c33 15 62 25 64 22 3 -3 -2 -31 -12 -62 -13 -47 -14 -65 -5 -96 19 -64 26 -52 26 46 0 83 2 96 23 117 12 14 22 27 22 30 0 9 -93 -17 -131 -36 -36 -18 -59 -21 -59 -7 0 17 42 40 137 77 51 20 93 40 93 44 0 10 -166 -45 -186 -61 -8 -7 -17 -9 -20 -6 -7 7 41 100 60 116 18 15 21 31 7 31 -17 0 -62 -67 -86 -127 -36 -88 -49 -82 -41 16 8 97 -9 105 -20 9 -5 -46 -9 -56 -17 -43 -14 26 -3 87 28 148 27 53 28 54 54 41 14 -7 67 -27 116 -45 50 -18 98 -39 108 -48 13 -11 20 -12 29 -3 14 14 28 16 28 3 0 -4 -19 -30 -42 -56 -25 -28 -38 -50 -31 -52 15 -5 5 -33 -12 -33 -7 0 -19 -32 -29 -82 -19 -96 -20 -122 -6 -113 6 3 10 18 10 33 0 15 12 59 26 97 14 39 26 78 28 89 3 19 43 47 139 97 31 16 57 34 57 39 0 13 -65 -13 -102 -40 -34 -25 -41 -25 -28 -1 20 38 13 54 -22 48 -24 -4 -51 3 -97 24 -34 17 -86 36 -114 43 -69 18 -77 33 -49 91 12 26 20 51 17 56 -10 15 -48 10 -84 -12 l-35 -21 16 24 c16 23 59 36 127 37 27 1 32 -2 23 -11 -7 -7 -12 -19 -12 -28 0 -9 -9 -25 -20 -35 -24 -22 -28 -80 -5 -71 8 3 44 8 80 12 84 9 84 26 0 23 -36 -1 -68 0 -71 4 -9 9 46 34 116 52 48 12 81 30 134 72 72 57 157 103 189 103 9 0 17 5 17 10 0 13 -7 13 -67 -5 -27 -8 -68 -28 -91 -45 -23 -16 -46 -30 -51 -30 -5 0 -11 -6 -14 -13 -7 -18 -84 -70 -97 -65 -6 2 19 28 54 58 65 55 80 78 30 45 -14 -9 -53 -41 -85 -71 -62 -57 -66 -59 -89 -44 -12 7 -11 10 5 16 11 4 42 25 68 46 108 84 186 117 320 133 92 11 66 24 -45 23 -64 -1 -88 -3 -63 -7 l40 -6 -53 -12 c-29 -7 -78 -29 -110 -49 -94 -61 -152 -84 -209 -84 -28 0 -64 -5 -79 -10 -41 -16 -42 -3 -3 36 28 27 49 38 101 49 36 7 85 23 109 35 24 12 73 32 108 45 73 26 69 41 -7 21 -28 -8 -53 -11 -56 -8 -3 3 -36 4 -72 4 -98 -2 -68 17 48 30 83 10 105 9 169 -7 41 -9 80 -20 86 -22 7 -3 13 0 13 6 0 6 -7 11 -15 11 -17 0 -132 107 -123 115 3 3 26 -4 53 -16 35 -16 44 -23 34 -30 -9 -6 4 -9 37 -9 29 0 58 6 70 15 19 14 19 14 -1 14 -11 0 -29 -4 -40 -8 -20 -8 -65 6 -65 20 0 4 8 10 18 12 9 3 1 5 -19 6 -43 1 -99 19 -99 32 0 13 14 11 71 -7 27 -9 53 -14 56 -10 10 10 -2 17 -64 32 -87 22 -92 25 -68 34 29 12 105 12 105 0 0 -5 6 -10 13 -10 8 0 19 -10 25 -22 11 -21 11 -20 9 12 -2 27 -7 35 -27 40 -17 4 -21 8 -12 14 7 4 10 11 7 16 -3 4 2 13 10 20 8 7 15 20 15 29 0 30 56 107 88 120 24 10 35 10 54 0 22 -13 22 -13 -19 -19 -41 -6 -73 -24 -73 -42 0 -5 10 -2 22 6 12 9 39 16 59 16 20 0 42 6 48 14 9 11 5 19 -21 40 l-33 26 37 0 c27 0 47 -9 78 -35 23 -19 48 -35 56 -35 22 0 16 -18 -11 -36 -14 -9 -25 -23 -25 -32 0 -12 4 -12 22 4 21 19 21 19 13 -1 -4 -11 -10 -58 -14 -105 -5 -81 -6 -83 -12 -35 -6 50 -6 50 -7 -17 -2 -73 -17 -138 -56 -247 -14 -39 -22 -71 -17 -71 12 0 70 163 78 219 6 42 7 44 15 20 18 -54 -24 -169 -105 -292 -41 -62 -84 -129 -96 -150 l-23 -37 -81 6 c-45 4 -85 9 -88 13 -8 8 160 166 168 158 3 -4 -2 -17 -13 -28 -14 -16 -15 -21 -4 -17 8 2 20 14 26 26 6 12 36 48 67 81 32 33 57 66 57 75 0 9 -16 -1 -40 -27 -53 -58 -197 -156 -246 -167 -21 -5 -68 -10 -104 -11 -36 -1 -78 -4 -95 -8 -29 -7 -28 -7 15 -13 25 -3 71 -3 103 1 31 4 57 4 57 1 0 -3 -19 -12 -42 -20 -31 -11 -43 -21 -43 -35 0 -22 24 -29 165 -49 l85 -12 -40 -40 c-22 -21 -65 -52 -95 -68 -38 -21 -49 -31 -37 -34 11 -2 17 -13 17 -32 0 -22 -9 -34 -48 -59 -44 -28 -120 -99 -97 -90 6 2 45 29 88 59 76 53 77 55 77 97 0 37 4 44 30 58 33 17 38 10 16 -21 -8 -11 -24 -45 -35 -75 -19 -48 -19 -55 -6 -69 13 -12 19 -12 36 -2 17 11 134 51 149 52 3 0 5 -42 5 -92 0 -88 2 -97 37 -165 33 -64 58 -97 58 -77 0 3 -17 40 -37 82 -35 70 -38 82 -37 161 0 58 6 99 17 125 23 53 28 42 11 -24 -8 -30 -13 -68 -13 -85 1 -25 3 -23 11 15 23 104 30 120 74 169 25 28 41 51 36 51 -6 0 -14 -4 -17 -10 -3 -5 -14 -10 -24 -10 -18 0 -56 -37 -84 -81 -11 -19 -36 -33 -78 -48 -35 -12 -70 -21 -78 -21 -8 0 -23 -7 -33 -17 -10 -9 -20 -14 -23 -11 -11 10 65 157 136 264 123 186 213 327 228 359 11 24 15 26 18 12 5 -19 -4 -35 -95 -167 -35 -50 -62 -96 -59 -103 2 -6 12 2 22 18 48 80 107 163 130 185 30 28 32 69 9 172 -32 140 -2 273 71 318 l38 23 -82 80 c-45 44 -85 77 -89 72 -4 -4 11 -23 33 -44 22 -20 49 -46 59 -59 32 -37 -1 -25 -48 18 -46 43 -109 70 -160 70 -17 0 -68 -16 -113 -34 -46 -19 -83 -30 -83 -25 0 9 41 30 105 54 35 13 -2 17 -40 5 -38 -13 -95 -55 -95 -71 0 -6 -14 -28 -32 -50 -33 -41 -73 -53 -84 -24 -4 8 -11 15 -16 15 -6 0 -8 -7 -4 -15 4 -10 -1 -15 -15 -15 -11 0 -59 -10 -106 -22 -72 -18 -95 -29 -130 -61 -74 -68 -57 -69 57 -5 83 47 170 72 227 65 35 -4 45 -1 53 14 9 17 87 69 103 69 21 0 1 -20 -43 -44 -55 -30 -67 -51 -19 -34 16 6 33 8 36 5 7 -8 -48 -56 -64 -57 -7 0 -24 -22 -38 -50 -14 -27 -30 -50 -35 -50 -15 0 -12 9 15 57 33 55 18 56 -26 1 -18 -24 -47 -54 -64 -68 -16 -13 -69 -63 -116 -110 -91 -90 -177 -170 -184 -170 -3 0 0 12 5 26 6 14 10 44 10 68 0 23 5 68 11 100 6 32 8 60 5 63 -3 3 -24 -11 -46 -31 -22 -20 -48 -36 -58 -36 -11 0 2 18 41 54 31 29 57 58 57 64 0 6 21 54 46 107 26 53 45 98 43 100 -2 2 -18 6 -34 10 -27 6 -28 5 -13 -8 11 -9 15 -21 11 -36 -5 -20 -10 -22 -42 -16 -20 4 -38 9 -40 11 -3 2 8 18 24 34 24 25 36 30 77 30 26 0 48 -2 48 -5 0 -3 -7 -17 -16 -31 -27 -40 -10 -38 21 2 46 60 116 122 172 151 29 16 53 32 53 37 0 16 -75 -3 -92 -24 -22 -28 -25 -26 -33 21 -7 38 -8 39 -25 24 -16 -15 -23 -10 -102 75 -52 55 -101 96 -124 106 -50 21 -168 24 -186 5 -11 -11 -7 -13 25 -8 20 3 37 2 37 -3 0 -10 -17 -16 -71 -25 -31 -6 -37 -12 -54 -56 -11 -27 -26 -49 -33 -49 -10 0 -13 -9 -10 -30 3 -17 1 -33 -4 -36 -4 -3 -8 2 -8 10 0 8 -5 18 -11 22 -9 5 -10 -1 -5 -20 4 -17 2 -34 -5 -42 -9 -11 -8 -28 6 -77 28 -100 47 -151 63 -170 25 -28 80 -59 99 -55 13 3 4 13 -34 38 -37 25 -53 42 -53 58 0 20 4 18 41 -19 22 -22 44 -38 47 -34 4 4 -21 33 -56 66 -34 33 -62 67 -62 77 0 9 -9 32 -20 50 -25 41 -25 50 0 27 11 -10 20 -13 20 -8 0 6 -7 16 -15 23 -8 7 -15 17 -15 22 0 7 5 6 13 -1 18 -15 27 -4 27 33 0 17 7 39 14 49 13 16 14 16 30 -7 9 -14 16 -40 16 -58 0 -18 5 -40 11 -48 7 -11 8 3 3 45 -4 33 -15 72 -25 87 -22 30 -23 38 -9 38 6 0 20 -16 31 -35 24 -40 36 -45 35 -12 -1 18 5 23 34 25 19 2 40 8 47 14 8 7 25 -3 58 -33 25 -23 48 -40 50 -37 10 10 -38 59 -93 95 -31 20 -59 38 -61 39 -2 2 5 11 14 21 17 17 19 17 29 -1 6 -10 19 -28 29 -40 18 -20 18 -20 2 12 -25 53 0 36 36 -23 52 -85 58 -93 59 -74 0 8 -14 37 -31 63 -17 26 -28 50 -25 54 4 3 10 2 14 -4 4 -6 15 -13 25 -17 19 -7 56 -80 57 -111 0 -10 9 -33 20 -51 20 -32 20 -32 0 -50 -11 -10 -20 -24 -20 -32 0 -7 -11 -13 -24 -13 -25 0 -51 -22 -39 -34 4 -3 -9 -22 -27 -41 -19 -19 -30 -35 -25 -35 5 0 -5 -13 -23 -29 -17 -17 -33 -35 -33 -40 -1 -6 -2 -17 -3 -23 0 -7 -11 -14 -24 -16 -16 -2 -20 -7 -15 -15 6 -7 2 -26 -9 -47 -12 -23 -18 -28 -18 -16 0 12 -5 16 -16 12 -9 -3 -20 -6 -25 -6 -5 0 -22 -26 -38 -58 -16 -32 -36 -64 -45 -71 -9 -8 -16 -23 -16 -36 0 -12 -9 -30 -20 -40 -11 -10 -18 -20 -15 -23 3 -3 14 3 26 14 11 10 42 26 67 35 27 9 52 25 58 37 16 32 45 62 60 62 8 0 11 6 8 15 -4 9 3 16 20 21 14 3 30 12 37 20 24 29 -27 14 -56 -16 -16 -16 -34 -30 -39 -30 -6 0 -30 -23 -54 -50 -24 -28 -50 -50 -59 -50 -10 0 0 18 32 55 25 30 39 52 31 49 -20 -8 -21 10 -2 25 11 9 20 10 36 1 18 -10 22 -7 34 22 8 18 26 46 40 61 21 23 33 27 77 27 42 0 49 -2 40 -14 -6 -7 -30 -17 -54 -20 -43 -7 -93 -33 -83 -43 3 -3 11 -1 18 5 18 15 85 26 91 15 6 -9 -94 -104 -137 -131 -15 -10 -16 -12 -3 -8 20 6 23 -14 7 -45 -13 -23 2 -26 20 -4 14 17 30 20 30 4 0 -5 -22 -19 -50 -31 -27 -11 -50 -27 -50 -35 0 -12 4 -12 22 1 38 27 40 18 7 -29 -40 -56 -66 -80 -56 -51 6 15 5 17 -6 7 -30 -24 -71 -139 -91 -253 -22 -122 -36 -151 -36 -72 0 75 30 183 82 299 27 61 52 116 55 124 5 11 -1 13 -27 8 -36 -8 -140 -72 -140 -88 0 -15 10 -11 62 27 28 19 52 33 54 31 3 -2 -2 -17 -10 -33 -8 -16 -25 -62 -37 -102 -16 -54 -30 -79 -50 -94 -37 -28 -43 -46 -24 -74 8 -13 15 -25 15 -28 0 -3 -23 -31 -51 -63 -58 -65 -87 -119 -81 -146 4 -22 -16 -77 -29 -77 -5 0 -9 7 -9 15 0 8 -4 15 -9 15 -5 0 -16 -35 -26 -77 -25 -113 -42 -153 -83 -195 -47 -49 -33 -63 16 -15 42 41 58 48 42 17 -6 -11 -8 -20 -4 -20 18 0 -30 -38 -54 -43 -20 -4 -39 -23 -69 -69 -44 -68 -103 -181 -103 -198 0 -17 123 83 145 118 11 17 25 31 31 32 7 0 15 11 18 25 10 38 30 31 22 -7 -6 -36 -53 -83 -173 -174 -50 -38 -76 -65 -84 -89 -7 -19 -17 -35 -21 -35 -20 0 -4 58 47 172 31 68 54 131 52 140 -3 9 4 25 15 35 11 10 31 39 44 65 13 26 38 69 54 95 29 46 82 192 79 217 -1 6 1 20 5 31 52 135 87 251 81 268 -6 15 19 80 46 118 13 18 15 29 7 37 -7 7 -4 19 11 40 11 17 21 42 21 56 0 14 6 29 13 33 26 15 67 87 55 94 -7 5 -4 16 11 34 11 15 21 32 21 36 0 5 16 31 35 58 19 26 35 52 35 56 0 4 -15 31 -34 59 -46 70 -75 139 -69 167 2 13 -6 45 -20 71 -22 44 -22 47 -5 51 14 4 18 15 18 50 0 27 6 49 15 57 8 7 15 18 15 24 0 16 98 116 114 116 8 0 27 7 42 15 44 22 121 19 179 -9z m-118 -108 c42 -19 45 -22 24 -26 -33 -5 -109 7 -117 19 -10 17 2 20 31 9 25 -9 26 -9 15 5 -17 20 -11 19 47 -7z m337 -154 c24 -9 19 -30 -15 -58 -53 -45 -111 -47 -88 -4 8 14 18 19 35 15 14 -2 27 0 30 4 3 5 -4 9 -15 9 -28 0 -27 12 2 26 28 15 32 15 51 8z m559 -90 c25 -8 66 -33 90 -54 32 -28 50 -37 65 -33 12 3 22 1 22 -5 0 -5 -12 -13 -26 -16 -21 -6 -34 0 -66 30 -78 70 -156 81 -222 30 -19 -14 -51 -58 -75 -105 -37 -71 -63 -101 -87 -101 -4 0 1 10 12 22 10 12 -1 6 -25 -15 -25 -20 -48 -37 -53 -37 -17 0 24 49 61 73 27 18 49 46 73 95 l35 70 -35 -5 c-25 -5 -33 -3 -28 5 4 7 17 12 29 12 12 1 47 12 77 25 65 29 91 30 153 9z m-737 -144 c21 0 17 -28 -5 -40 -24 -12 -101 -14 -101 -2 0 22 55 54 78 46 8 -2 20 -4 28 -4z m1551 -135 c50 -21 52 -49 6 -134 -1 -2 -19 7 -39 20 l-37 22 -24 -27 c-12 -15 -23 -36 -23 -47 0 -10 -5 -19 -11 -19 -8 0 -9 11 -5 31 12 62 -32 78 -79 29 -16 -16 -37 -30 -47 -30 -22 0 -22 -1 -2 66 19 67 40 93 84 104 43 11 134 3 177 -15z m-1189 -67 c20 -20 14 -28 -12 -18 -15 5 -38 5 -61 -1 -38 -11 -105 -68 -105 -90 0 -10 3 -10 12 -1 7 7 30 13 53 14 36 1 37 2 8 5 -38 5 -40 10 -15 30 59 47 116 40 165 -20 l35 -43 -86 0 c-48 1 -89 4 -92 8 -15 20 -120 -43 -120 -72 0 -4 34 -6 75 -5 41 2 75 0 75 -4 0 -5 -130 -54 -187 -69 -7 -2 1 30 18 79 33 91 85 164 133 185 39 17 88 18 104 2z m-404 -45 c-51 -77 -86 -141 -94 -173 -16 -66 -30 -143 -26 -147 11 -12 45 70 51 126 7 61 8 63 21 40 l13 -24 1 27 c0 14 -5 28 -11 30 -8 3 -8 10 2 26 8 12 17 22 20 22 14 0 18 -46 7 -94 -13 -61 -31 -100 -68 -143 -28 -31 -60 -120 -60 -164 0 -22 0 -22 21 -3 14 13 18 25 14 42 -4 18 -1 25 15 29 15 4 18 9 10 19 -8 9 -6 21 7 46 l18 33 3 -49 c4 -63 -9 -93 -65 -147 l-46 -44 6 115 c4 65 13 136 23 163 17 50 14 74 -6 38 -6 -12 -15 -21 -20 -21 -6 0 -29 -14 -52 -30 -68 -49 -58 -23 19 48 42 40 84 91 104 127 37 68 88 135 102 135 5 0 1 -12 -9 -27z m1436 -27 c0 -16 -65 -76 -83 -76 -20 0 -85 59 -66 60 9 0 22 -7 29 -15 18 -22 36 -19 72 15 37 33 48 37 48 16z m123 -6 c36 -21 67 -18 67 6 0 8 4 14 8 14 11 0 -3 -117 -19 -155 -6 -17 -22 -67 -33 -111 l-22 -82 -24 18 -25 19 22 23 c12 13 27 45 34 71 6 26 20 64 30 85 25 48 25 75 0 67 -19 -6 -81 37 -81 56 0 13 4 12 43 -11z m-1445 -112 c-8 -13 -36 -75 -63 -138 -41 -97 -49 -128 -53 -195 -5 -86 5 -95 19 -18 5 26 20 64 34 84 23 36 60 58 73 44 3 -3 -20 -56 -51 -118 -32 -62 -58 -125 -58 -142 l-1 -30 -15 35 c-11 24 -18 78 -21 176 -4 139 -4 143 22 190 28 52 101 134 118 134 6 0 4 -10 -4 -22z m-297 -290 l-6 -147 -39 -40 c-22 -23 -41 -39 -43 -38 -9 10 29 114 47 129 17 14 21 26 18 65 l-3 48 -38 -90 c-36 -87 -38 -94 -35 -190 2 -82 4 -93 11 -60 5 22 10 49 13 60 2 11 13 31 25 45 l20 25 -4 -52 c-2 -29 -15 -73 -31 -104 -21 -40 -26 -61 -22 -88 8 -49 12 -85 14 -121 1 -16 7 -30 12 -30 7 0 9 19 5 53 -5 44 -4 50 7 36 11 -14 15 -12 29 18 13 25 13 31 3 22 -11 -9 -18 -8 -29 1 -20 17 -19 34 1 26 17 -6 74 13 74 25 0 4 -9 26 -20 50 -24 54 -27 157 -5 199 14 28 51 60 67 60 5 0 6 -62 2 -137 -6 -146 -9 -157 -78 -276 -16 -26 -32 -71 -36 -100 l-7 -52 -26 55 c-17 37 -30 86 -37 150 -6 52 -15 125 -21 162 -14 99 -11 139 9 162 10 12 27 44 37 71 10 28 26 64 36 81 26 43 24 52 -6 24 -40 -37 -40 -16 -1 28 20 22 36 44 36 49 0 8 22 35 25 30 1 -1 -1 -68 -4 -149z m1539 -15 c1 -17 1 -17 14 0 9 11 27 17 55 17 22 0 41 -3 41 -6 0 -18 -68 -88 -97 -100 -32 -14 -134 -19 -145 -8 -9 9 97 114 115 114 10 0 17 -8 17 -17z m-420 -73 c0 -5 6 -7 14 -4 23 9 47 -9 36 -26 -8 -12 -11 -13 -19 -1 -6 9 -10 10 -16 2 -5 -9 -10 -9 -20 -1 -9 8 -15 8 -20 0 -11 -17 -45 -12 -38 6 9 23 63 44 63 24z m-1300 -38 c0 -17 -18 -56 -41 -93 -55 -85 -159 -214 -159 -197 0 18 51 98 78 122 12 11 22 26 22 35 0 9 16 31 35 50 53 51 47 66 -11 30 -43 -26 -44 -9 -1 25 17 14 39 32 47 40 23 22 30 19 30 -12z m16 -68 c-3 -9 -6 -21 -6 -28 0 -6 -22 -38 -50 -71 -27 -32 -48 -61 -45 -63 9 -9 76 50 88 76 11 25 12 21 15 -41 2 -47 -2 -77 -14 -102 -22 -47 -91 -114 -123 -121 -63 -12 -76 -20 -79 -44 -2 -14 1 -20 5 -14 13 17 49 34 75 34 13 0 29 5 34 10 8 8 14 -15 23 -73 9 -68 9 -92 -3 -130 -18 -61 -64 -139 -79 -135 -7 2 -25 31 -42 63 -26 52 -30 73 -33 157 -3 84 0 108 22 176 17 50 37 89 55 106 16 15 55 69 87 121 33 52 63 94 68 95 4 0 5 -7 2 -16z m370 -257 c2 -70 0 -127 -5 -127 -29 0 -49 133 -31 209 20 84 32 56 36 -82z m-35 -183 c28 -37 42 -67 50 -110 16 -84 33 -101 39 -39 l5 49 27 -42 c36 -54 100 -174 95 -178 -4 -4 -40 26 -219 180 -44 38 -88 82 -98 98 -19 32 -36 150 -24 170 8 12 50 -30 125 -128z m-144 53 c0 -40 5 -75 16 -96 29 -59 18 -67 -32 -25 -25 21 -31 33 -31 66 0 23 9 57 22 79 12 22 23 39 24 39 1 0 1 -28 1 -63z m-92 -82 c17 -17 46 -43 65 -59 19 -15 26 -25 15 -21 -11 5 -34 10 -51 12 -23 4 -33 12 -42 35 -14 39 -41 34 -64 -12 -24 -50 -22 -26 4 48 19 53 25 60 33 45 6 -9 24 -31 40 -48z m-430 -15 c-19 -28 -35 -59 -35 -67 0 -17 -49 -83 -62 -83 -11 0 55 122 95 173 42 55 44 39 2 -23z m411 -55 c6 -33 -25 -85 -52 -85 -23 0 -16 40 9 49 19 8 20 10 5 16 -17 7 -15 27 5 53 13 17 25 4 33 -33z m210 -36 c16 -17 59 -53 97 -81 37 -27 67 -51 67 -53 0 -8 -48 11 -78 32 -19 13 -39 23 -44 23 -6 0 -33 20 -60 45 -28 25 -55 45 -62 46 -9 1 24 14 45 18 3 1 18 -13 35 -30z m-524 -62 c9 -44 9 -75 0 -142 -7 -46 -15 -92 -18 -100 -4 -8 -1 -15 5 -15 6 0 11 8 11 18 0 9 5 24 10 32 8 12 10 8 9 -15 -1 -16 2 -45 6 -62 6 -27 4 -33 -9 -33 -9 0 -16 -5 -16 -11 0 -6 8 -8 18 -5 15 5 18 0 18 -29 0 -41 38 -87 69 -83 14 2 22 13 26 38 5 35 6 35 13 8 4 -15 3 -35 -3 -46 -8 -16 -6 -25 10 -46 32 -41 16 -42 -29 -2 -22 20 -43 36 -47 36 -4 0 -30 16 -57 36 -43 32 -48 40 -43 64 4 18 1 31 -10 40 -21 18 -19 33 5 25 23 -7 25 2 6 27 -12 17 -14 17 -29 0 -8 -9 -17 -28 -19 -42 -5 -37 -30 -35 -72 5 -21 19 -42 35 -47 35 -5 0 -11 10 -14 23 -4 12 -16 27 -27 32 -26 12 -32 44 -13 65 7 8 15 20 17 25 2 6 9 9 16 8 8 0 11 5 8 13 -3 8 0 14 6 14 6 0 17 8 24 18 13 16 13 16 14 0 0 -32 18 -19 24 17 5 24 14 39 30 45 12 4 36 24 52 43 16 19 32 31 37 27 4 -3 13 -32 19 -63z m347 -182 c18 -91 31 -171 28 -178 -10 -32 -137 195 -156 283 -11 51 -7 59 42 76 25 9 34 9 43 -2 6 -7 25 -88 43 -179z m306 -477 c4 -29 11 -38 26 -38 11 0 37 -14 58 -32 36 -30 37 -32 24 -60 -11 -22 -18 -26 -31 -19 -9 5 -46 15 -81 22 -51 10 -61 14 -49 23 10 7 18 37 23 76 7 63 16 95 21 75 1 -6 5 -27 9 -47z"/><path d="M2917 4158 c-36 -40 -69 -70 -73 -65 -4 4 14 30 41 57 27 27 46 52 43 55 -8 8 -128 -83 -128 -97 1 -7 24 -24 53 -38 97 -47 161 -122 197 -233 11 -36 13 -37 30 -22 10 9 28 49 40 88 18 57 21 85 16 136 -6 55 -28 121 -41 121 -2 0 -12 -16 -21 -35 -9 -19 -20 -35 -25 -35 -13 0 -11 6 12 52 17 33 19 46 10 64 -15 34 -24 30 -45 -21 -24 -60 -144 -167 -122 -109 4 12 2 15 -9 10 -26 -9 -16 7 30 54 25 25 53 45 63 45 10 0 18 9 20 23 6 41 -24 24 -91 -50z m110 -48 c-3 -10 2 -25 10 -31 12 -10 19 -7 37 16 23 29 23 29 30 7 4 -12 5 -26 1 -32 -3 -5 -2 -17 3 -27 14 -24 -4 -66 -38 -92 -19 -13 -30 -17 -30 -9 0 7 -21 34 -47 60 l-47 48 39 40 c44 45 49 48 42 20z"/><path d="M2456 4071 c-8 -12 120 -82 138 -75 8 3 26 -2 40 -11 24 -16 26 -16 32 1 3 11 10 27 15 36 5 10 9 20 9 23 0 3 -38 5 -85 5 -57 0 -96 5 -115 15 -16 8 -31 11 -34 6z"/><path d="M2191 4058 c-32 -7 -57 -23 -92 -58 -27 -27 -49 -54 -49 -60 0 -23 39 -8 65 26 26 34 115 84 150 84 8 0 15 5 15 10 0 12 -29 11 -89 -2z"/><path d="M2010 4026 c-50 -10 -109 -41 -110 -58 0 -3 9 -4 20 -1 11 3 20 0 20 -6 0 -6 -11 -11 -26 -11 -24 0 -81 -50 -106 -94 -9 -17 -8 -18 23 -12 19 4 53 9 77 13 23 3 42 8 42 10 0 2 -8 15 -17 30 -17 25 -16 26 12 49 17 13 40 24 53 24 31 0 28 -9 -8 -21 -19 -7 -30 -18 -30 -30 0 -14 7 -19 30 -19 17 0 30 5 30 10 0 6 -7 10 -15 10 -8 0 -15 5 -15 10 0 6 9 10 19 10 13 0 23 11 31 34 6 19 17 37 25 40 15 5 21 27 8 25 -5 0 -33 -6 -63 -13z"/><path d="M1394 4006 c-9 -23 29 -96 76 -149 56 -63 66 -52 11 13 -55 65 -95 155 -51 115 22 -20 26 -14 10 16 -12 22 -38 25 -46 5z"/><path d="M2762 3957 c-18 -18 -32 -36 -32 -39 0 -4 24 -15 53 -26 28 -11 90 -39 136 -61 99 -48 126 -52 115 -18 -28 93 -48 114 -119 122 -32 4 -52 11 -49 17 4 6 22 8 40 5 19 -3 34 -2 34 4 0 12 -70 11 -109 -2 -17 -6 -31 -17 -31 -25 0 -8 -7 -14 -15 -14 -23 0 -1 36 33 54 l27 15 -26 1 c-16 0 -37 -12 -57 -33z m199 -57 c20 -11 54 -68 46 -77 -9 -8 -47 17 -47 32 0 21 -19 28 -36 14 -21 -18 -42 4 -24 26 15 18 34 19 61 5z"/><path d="M2296 3809 c-14 -11 -33 -34 -41 -50 -14 -26 -14 -29 0 -29 9 0 20 11 25 25 11 28 25 32 34 10 7 -20 111 -21 119 -2 4 10 -1 13 -16 10 -17 -3 -25 3 -35 26 -16 37 -47 41 -86 10z"/><path d="M1943 3800 c-13 -5 -23 -14 -23 -20 0 -6 -20 -20 -45 -31 -46 -20 -61 -35 -25 -26 24 6 25 -1 4 -25 -16 -17 -18 -17 -30 0 -12 15 -13 15 -14 1 0 -9 -7 -20 -16 -23 -29 -11 -28 3 1 34 16 17 26 30 22 30 -15 0 -117 -62 -117 -71 0 -14 11 -11 32 8 21 19 37 10 19 -11 -10 -11 -9 -15 6 -18 48 -10 88 11 160 86 69 73 74 85 26 66z"/><path d="M2446 3765 l-7 -45 -77 0 c-53 0 -72 -3 -62 -10 8 -5 44 -10 79 -10 l63 0 -4 -52 c-5 -59 -72 -219 -119 -282 -16 -22 -26 -42 -23 -45 8 -8 51 49 87 119 56 106 76 175 79 278 3 98 -5 122 -16 47z"/><path d="M2610 3801 c0 -5 7 -14 15 -21 22 -18 114 -60 131 -60 22 0 16 20 -9 29 -12 5 -47 21 -77 35 -61 29 -60 29 -60 17z"/><path d="M2590 3623 c0 -35 61 -253 71 -253 11 0 -1 65 -28 153 -13 44 -23 81 -20 83 17 18 67 -137 67 -210 0 -23 37 -66 57 -66 6 0 14 7 17 16 11 29 6 154 -7 187 -8 18 -15 37 -15 42 -1 6 -13 10 -25 10 -13 1 -42 15 -64 33 -23 18 -44 32 -47 32 -3 0 -6 -12 -6 -27z m110 -112 c5 -20 10 -51 10 -68 0 -18 5 -33 11 -33 11 0 7 51 -8 120 -4 20 -3 23 7 13 27 -25 34 -173 9 -189 -13 -8 -31 36 -45 106 -6 36 -15 76 -20 90 -7 22 -6 24 9 11 9 -7 21 -30 27 -50z"/><path d="M2750 3610 c0 -11 76 -90 86 -90 4 0 13 -8 20 -17 12 -17 13 -17 14 3 0 12 -21 38 -54 67 -57 49 -66 54 -66 37z"/><path d="M2349 3574 c-36 -38 -72 -54 -126 -54 -35 0 -44 -3 -33 -10 20 -13 86 -13 113 1 27 14 87 70 87 81 0 15 -17 8 -41 -18z"/><path d="M2763 3535 c9 -16 20 -46 25 -65 l10 -35 1 41 c1 31 -5 46 -25 65 l-26 24 15 -30z"/><path d="M2888 3470 c-4 -8 -9 -31 -12 -50 -8 -45 -47 -125 -83 -169 -23 -29 -25 -33 -8 -26 11 4 69 18 128 30 117 25 155 42 67 30 l-55 -7 29 31 c47 49 24 46 -29 -4 -27 -25 -55 -45 -63 -45 -12 0 -12 4 3 20 10 11 15 20 12 20 -3 0 1 23 9 51 14 47 16 152 2 119z"/><path d="M1301 3367 c-26 -14 -50 -57 -76 -137 -10 -30 -24 -64 -31 -75 -17 -27 -55 -147 -49 -153 9 -9 33 31 55 91 22 59 36 76 27 32 -3 -16 0 -24 7 -22 11 4 12 23 1 68 -6 22 0 35 29 67 32 35 75 126 64 137 -2 2 -14 -1 -27 -8z"/><path d="M2200 3340 c0 -5 -6 -10 -14 -10 -19 0 -77 -61 -74 -78 5 -21 23 -15 28 10 4 15 22 31 50 46 50 25 62 42 31 42 -12 0 -21 -4 -21 -10z"/><path d="M2313 2982 c-21 -12 -27 -12 -34 0 -11 16 -29 -4 -65 -74 -29 -57 -19 -62 17 -10 14 20 39 43 55 51 16 7 37 18 47 23 13 6 23 5 33 -3 12 -10 19 -9 34 7 19 19 19 19 -21 19 -22 0 -52 -6 -66 -13z"/><path d="M2555 2924 c-121 -78 -161 -130 -172 -224 -7 -56 3 -120 19 -120 6 0 7 8 3 18 -11 28 -18 78 -11 70 4 -3 18 -32 32 -65 l24 -58 0 43 c0 23 -4 42 -8 42 -5 0 -17 17 -26 39 -17 37 -17 40 4 90 24 56 77 105 195 186 11 7 18 16 15 19 -3 2 -37 -15 -75 -40z"/><path d="M2929 2927 c-19 -18 -55 -50 -81 -71 -51 -41 -54 -47 -62 -121 l-6 -50 40 83 c22 45 42 82 46 82 21 0 -32 -159 -84 -253 -16 -28 -36 -65 -45 -82 -9 -16 -35 -72 -57 -124 -22 -52 -54 -117 -72 -145 -26 -43 -118 -248 -118 -264 0 -20 43 40 64 91 38 89 120 247 128 247 4 0 1 -20 -6 -43 -12 -40 -11 -45 5 -55 10 -7 26 -12 34 -12 22 0 19 -8 -18 -43 -48 -46 -87 -166 -87 -270 0 -75 11 -117 30 -117 5 0 5 14 -1 32 -22 77 -6 185 43 301 23 52 38 56 50 12 9 -34 0 -76 -43 -205 -26 -82 -31 -108 -29 -190 1 -89 7 -121 17 -92 6 15 23 6 23 -12 0 -18 51 -108 57 -102 9 8 -16 71 -47 120 -27 41 -30 55 -30 124 0 90 11 118 29 75 15 -36 61 -92 61 -75 0 7 -12 31 -26 53 -36 58 -20 62 31 7 32 -33 46 -58 51 -87 7 -43 24 -57 24 -18 0 38 -26 135 -44 161 -20 32 -20 36 1 36 52 0 82 -24 129 -104 26 -45 74 -109 106 -144 32 -34 58 -67 58 -72 0 -6 5 -10 10 -10 19 0 10 25 -26 70 -19 24 -50 76 -69 115 -25 54 -48 83 -91 120 -31 27 -52 51 -46 53 7 2 49 -19 94 -46 46 -27 99 -58 118 -67 19 -10 48 -29 64 -42 30 -25 48 -24 26 2 -7 8 -45 39 -84 69 -135 101 -168 144 -177 230 -4 34 -16 86 -28 117 -19 51 -25 58 -56 63 -29 6 -42 2 -72 -21 -25 -19 -35 -23 -31 -12 4 9 10 37 13 63 4 25 8 46 10 46 1 0 16 -7 31 -15 16 -8 44 -15 62 -15 19 0 32 -5 32 -12 0 -9 3 -8 9 1 8 12 13 8 28 -18 42 -77 118 -179 127 -170 8 7 -80 159 -124 214 -37 47 -59 60 -39 23 11 -20 10 -21 -36 -15 -58 8 -80 23 -64 43 6 8 22 14 36 14 46 0 63 17 62 63 -1 23 -3 33 -6 22 -10 -48 -14 -51 -29 -23 -13 25 -13 32 7 75 l22 48 18 -75 c11 -41 16 -87 14 -101 -4 -17 0 -30 10 -39 8 -7 17 -11 19 -9 2 2 -1 38 -7 79 -6 41 -10 127 -9 190 2 104 1 113 -12 96 -9 -10 -27 -51 -42 -90 -35 -92 -84 -190 -91 -182 -6 6 25 123 37 141 13 18 87 199 105 255 33 102 40 87 20 -42 -3 -16 -1 -28 4 -28 4 0 14 41 22 90 8 50 12 90 9 90 -4 0 -22 -15 -41 -33z m-188 -538 c-12 -56 -21 -112 -21 -125 0 -23 -16 -41 -27 -30 -6 6 12 117 33 196 21 76 25 88 31 73 2 -7 -5 -58 -16 -114z m101 -149 c44 -34 61 -148 34 -215 -11 -26 -24 -36 -55 -46 -23 -7 -44 -10 -47 -6 -3 3 -10 40 -14 81 -5 41 -12 90 -15 108 -4 22 -1 40 9 53 23 30 32 9 46 -107 7 -54 17 -101 23 -105 15 -9 2 132 -18 190 -23 67 -9 84 37 47z m78 -228 c0 -10 16 -33 35 -52 19 -18 33 -35 31 -37 -1 -2 -23 8 -48 22 -46 26 -78 25 -78 -2 0 -10 -8 -12 -33 -8 -24 5 -37 2 -46 -9 -10 -12 -8 -23 15 -63 l27 -48 -41 39 c-26 25 -46 36 -56 33 -19 -8 -20 2 -4 57 14 49 28 69 28 38 0 -33 27 -42 78 -24 29 9 50 25 61 43 18 33 31 37 31 11z"/><path d="M2762 2793 c-5 -10 -12 -37 -16 -60 -3 -23 -24 -82 -45 -130 -21 -48 -50 -119 -64 -158 -50 -139 -135 -295 -145 -267 -2 7 5 24 16 39 27 38 92 170 92 185 0 7 -19 -21 -41 -62 -22 -41 -48 -86 -58 -100 -37 -54 -81 -159 -100 -239 -12 -47 -19 -87 -16 -89 2 -3 8 4 11 14 24 69 79 173 117 222 66 85 93 136 137 265 22 63 56 148 75 189 19 40 35 84 35 98 0 14 5 42 11 63 11 42 6 60 -9 30z"/><path d="M2535 2777 c-33 -50 -54 -127 -61 -216 -6 -78 -9 -89 -20 -73 -12 15 -13 15 -14 1 0 -9 9 -28 20 -41 18 -23 18 -30 7 -89 l-12 -64 -5 50 c-4 42 -6 46 -12 25 -4 -14 -8 -37 -8 -52 0 -49 -17 -30 -24 26 -6 44 -15 63 -57 112 -27 32 -55 59 -62 59 -7 0 -15 -18 -18 -40 -5 -34 -6 -29 -8 27 0 38 -6 70 -13 74 -18 11 -48 -34 -49 -75 0 -29 -2 -32 -9 -16 -4 11 -20 31 -34 44 -14 14 -26 32 -26 42 0 10 -5 21 -12 25 -22 14 2 -60 27 -84 14 -12 42 -58 64 -101 21 -43 57 -107 80 -143 51 -80 91 -171 91 -204 0 -14 4 -22 10 -19 6 3 10 23 10 44 0 45 15 89 61 186 30 65 33 78 35 180 1 61 7 123 13 138 6 16 11 43 11 60 1 18 9 57 20 87 21 62 19 74 -5 37z m-276 -386 c16 -55 7 -65 -14 -15 -21 50 -30 124 -19 161 7 24 9 19 14 -37 4 -36 12 -85 19 -109z m59 77 c49 -57 62 -82 78 -156 17 -75 12 -150 -7 -107 -7 15 -8 9 -6 -22 3 -53 -8 -55 -23 -5 -7 20 -27 65 -46 100 -31 56 -34 71 -34 142 0 44 3 80 6 80 3 0 17 -14 32 -32z"/><path d="M2659 2742 c-67 -69 -106 -133 -125 -204 -28 -106 -11 -117 26 -16 24 67 87 198 95 198 13 0 -9 -165 -30 -225 -7 -20 -6 -20 9 -1 9 11 16 29 16 40 0 12 11 42 25 67 18 35 65 176 65 196 0 2 -6 3 -12 3 -7 0 -38 -26 -69 -58z"/><path d="M2005 2659 c-4 -26 -3 -45 4 -52 8 -8 11 -5 11 10 0 19 38 78 46 71 2 -2 -3 -40 -11 -83 -17 -94 -20 -235 -5 -235 6 0 10 35 10 84 0 47 7 117 15 156 8 40 13 76 9 81 -9 15 -42 10 -54 -8 -11 -17 -11 -17 -6 0 3 9 1 17 -3 17 -5 0 -12 -18 -16 -41z"/><path d="M1707 2657 c-10 -27 9 -54 43 -62 33 -7 38 -13 61 -69 23 -57 41 -58 24 -1 -19 62 -21 64 -70 85 -31 13 -44 25 -47 42 -3 20 -4 21 -11 5z"/><path d="M2631 2630 c0 -8 -8 -28 -17 -45 -14 -25 -64 -144 -95 -222 -5 -13 -5 -23 -1 -23 11 0 54 72 63 105 4 16 19 58 34 93 14 35 24 73 22 85 -2 12 -5 15 -6 7z"/><path d="M2081 2563 c1 -71 17 -125 48 -163 18 -23 64 -96 102 -163 52 -91 68 -128 64 -147 -4 -18 2 -36 20 -60 24 -33 25 -33 25 -9 0 44 -36 134 -96 236 -31 54 -65 107 -74 118 -29 33 -57 96 -70 158 -12 61 -20 74 -19 30z"/><path d="M1911 2495 c-1 -38 145 -197 238 -259 40 -26 75 -46 78 -43 3 3 -17 21 -43 39 -53 35 -203 181 -246 238 -15 19 -27 31 -27 25z"/><path d="M2890 2281 c0 -5 15 -42 34 -83 24 -53 46 -84 75 -107 44 -35 57 -64 16 -37 -44 29 -41 16 5 -23 25 -22 42 -43 38 -47 -4 -4 -15 -1 -23 6 -9 8 -27 15 -41 16 -22 2 -24 1 -13 -13 16 -18 155 -133 163 -133 2 0 -11 23 -30 51 -33 49 -45 87 -24 74 16 -10 12 5 -10 33 -82 107 -135 184 -156 225 -23 45 -34 57 -34 38z"/><path d="M1560 2180 c-11 -38 -37 -100 -56 -136 -19 -36 -29 -64 -22 -62 33 11 130 249 107 263 -4 3 -17 -26 -29 -65z"/><path d="M1910 2193 c0 -5 31 -38 68 -75 50 -48 72 -77 81 -109 7 -24 21 -57 31 -74 19 -32 149 -334 171 -400 16 -45 71 -105 97 -105 12 1 6 10 -20 31 -29 24 -45 51 -77 132 -52 135 -135 323 -150 340 -6 8 -20 41 -31 73 -11 32 -33 71 -48 87 -42 44 -122 110 -122 100z"/><path d="M1830 2119 c0 -21 88 -169 101 -169 16 0 10 17 -17 49 -14 17 -23 31 -20 31 4 0 47 -32 96 -70 79 -63 90 -76 105 -123 19 -56 35 -82 35 -54 0 33 -42 123 -68 144 -15 13 -64 51 -109 85 -46 33 -83 64 -83 67 0 3 -9 17 -20 31 -15 19 -20 21 -20 9z"/><path d="M2496 2087 c-46 -77 -96 -196 -106 -248 -19 -98 -3 -327 21 -302 4 4 3 33 -3 63 -6 30 -8 101 -5 156 4 92 8 110 47 195 64 141 80 179 75 179 -2 0 -15 -19 -29 -43z"/><path d="M2945 2068 c11 -49 19 -56 25 -23 6 30 -4 55 -22 55 -6 0 -7 -14 -3 -32z"/><path d="M2251 2055 c0 -16 6 -55 14 -85 9 -30 20 -91 26 -135 12 -96 27 -155 38 -155 5 0 2 28 -5 63 -7 34 -13 79 -14 100 0 22 -9 69 -19 105 -10 37 -24 83 -29 102 l-10 35 -1 -30z"/><path d="M1940 1932 c0 -32 201 -244 209 -220 2 6 -32 47 -77 89 -44 43 -88 92 -98 108 -18 30 -34 40 -34 23z"/><path d="M2700 1786 c0 -2 14 -46 31 -98 29 -90 43 -117 54 -106 4 4 -23 94 -42 138 -3 8 -5 21 -4 28 3 15 -17 42 -30 42 -5 0 -9 -2 -9 -4z"/><path d="M2900 1666 c0 -14 -10 -41 -22 -62 -18 -30 -19 -40 -9 -56 11 -17 9 -24 -13 -47 -30 -31 -32 -44 -11 -61 19 -16 9 -33 -16 -25 -13 4 -19 2 -19 -8 0 -26 38 -27 55 -1 17 27 19 44 5 44 -17 0 -11 22 12 47 18 20 20 26 10 48 -15 33 -15 33 4 31 9 0 19 5 22 13 3 8 0 11 -7 7 -6 -4 -11 -3 -11 3 0 5 5 13 10 16 6 3 10 22 10 41 0 19 -4 34 -10 34 -5 0 -10 -11 -10 -24z"/><path d="M1491 2994 c-25 -57 -26 -184 0 -184 5 0 6 12 3 27 -9 32 -8 35 5 93 6 25 13 55 16 68 7 30 -9 28 -24 -4z"/><path d="M1160 2734 c0 -15 10 -42 22 -61 l21 -35 13 23 c13 26 10 39 -11 39 -7 0 -16 7 -19 16 -9 22 -8 23 17 17 22 -5 22 -5 2 10 -29 24 -45 20 -45 -9z"/><path d="M1109 2541 c-25 -25 -29 -37 -29 -83 0 -29 5 -60 10 -68 7 -11 10 -3 10 29 0 55 19 111 45 133 13 11 15 17 7 18 -8 0 -27 -13 -43 -29z"/><path d="M1315 2286 c-17 -12 -18 -18 -6 -68 6 -31 19 -64 27 -74 15 -18 15 -18 9 1 -20 61 -28 104 -22 118 10 25 30 21 24 -5 -3 -12 -1 -30 4 -40 6 -10 10 -45 10 -78 1 -39 6 -63 15 -71 28 -23 27 -14 -8 174 -11 59 -21 67 -53 43z"/></g></svg>